<svg id="Layer_1" data-name="Layer 1" xmlns="http://www.w3.org/2000/svg" viewBox="0 0 1051.89 705.54"><defs><style>.cls-1{fill:#2e294e;}.cls-2{fill:#19647e;}.cls-3{fill:#9a348e;}.cls-4{fill:none;stroke:#000;}.cls-5,.cls-9{isolation:isolate;font-family:Helvetica;}.cls-5{font-size:11px;}.cls-6{letter-spacing:-0.11em;}.cls-7{letter-spacing:-0.02em;}.cls-8{letter-spacing:-0.09em;}.cls-9{font-size:10px;}.cls-10{font-size:21px;font-family:HelveticaNeue-Bold, Helvetica Neue;font-weight:700;}.cls-11{letter-spacing:-0.09em;}.cls-12,.cls-14{letter-spacing:-0.02em;}.cls-13,.cls-14,.cls-15{font-family:HelveticaNeue, Helvetica Neue;font-weight:400;}.cls-13{letter-spacing:0em;}</style></defs><rect id="undefined_-_Texas" data-name="undefined - Texas" class="cls-1" x="173.91" y="149.17" width="65.79" height="505.51"/><rect id="undefined_-_Louisiana" data-name="undefined - Louisiana" class="cls-1" x="247.62" y="252.26" width="65.79" height="402.42"/><rect id="undefined_-_Florida" data-name="undefined - Florida" class="cls-1" x="321.33" y="294.59" width="65.79" height="360.09"/><rect id="undefined_-_California" data-name="undefined - California" class="cls-2" x="395.03" y="465.63" width="65.79" height="189.05"/><rect id="undefined_-_Puerto_Rico" data-name="undefined - Puerto Rico" class="cls-1" x="468.74" y="493.78" width="65.79" height="160.9"/><rect id="undefined_-_North_Carolina" data-name="undefined - North Carolina" class="cls-1" x="542.45" y="540.51" width="65.79" height="114.17"/><rect id="undefined_-_Mississippi" data-name="undefined - Mississippi" class="cls-1" x="616.16" y="544.84" width="65.79" height="109.84"/><rect id="undefined_-_New_York" data-name="undefined - New York" class="cls-1" x="689.87" y="549.06" width="65.79" height="105.61"/><rect id="undefined_-_New_Jersey" data-name="undefined - New Jersey" class="cls-1" x="763.58" y="571.99" width="65.79" height="82.69"/><rect id="undefined_-_Iowa" data-name="undefined - Iowa" class="cls-3" x="837.29" y="577.59" width="65.79" height="77.09"/><path class="cls-4" d="M166,654.68H911"/><line class="cls-4" x1="206.81" y1="654.68" x2="206.81" y2="660.68"/><text class="cls-5" transform="translate(193.74 670.78)"><tspan class="cls-6">T</tspan><tspan x="5.5" y="0">exas</tspan></text><line class="cls-4" x1="280.51" y1="654.68" x2="280.51" y2="660.68"/><text class="cls-5" transform="translate(259.11 670.78)">Louisiana</text><line class="cls-4" x1="354.22" y1="654.68" x2="354.22" y2="660.68"/><text class="cls-5" transform="translate(338.94 670.78)">Florida</text><line class="cls-4" x1="427.93" y1="654.68" x2="427.93" y2="660.68"/><text class="cls-5" transform="translate(406.81 670.78)">California</text><line class="cls-4" x1="501.64" y1="654.68" x2="501.64" y2="660.68"/><text class="cls-5" transform="translate(475.52 670.78)">Puerto Rico</text><line class="cls-4" x1="575.35" y1="654.68" x2="575.35" y2="660.68"/><text class="cls-5" transform="translate(543.11 670.78)">North Carolina</text><line class="cls-4" x1="649.06" y1="654.68" x2="649.06" y2="660.68"/><text class="cls-5" transform="translate(624.89 670.78)">Mississippi</text><line class="cls-4" x1="722.76" y1="654.68" x2="722.76" y2="660.68"/><text class="cls-5" transform="translate(701.64 670.78)">New<tspan class="cls-7" x="22.01" y="0"> </tspan><tspan class="cls-8" x="24.87" y="0">Y</tspan><tspan x="31.2" y="0">ork</tspan></text><line class="cls-4" x1="796.47" y1="654.68" x2="796.47" y2="660.68"/><text class="cls-5" transform="translate(770.36 670.78)">New Jersey</text><line class="cls-4" x1="870.18" y1="654.68" x2="870.18" y2="660.68"/><text class="cls-5" transform="translate(859.62 670.78)">Iowa</text><path class="cls-4" d="M160,654.68h6v-560h-6"/><line class="cls-4" x1="165.99" y1="654.68" x2="159.99" y2="654.68"/><text class="cls-9" transform="translate(151.43 657.88)">0</text><line class="cls-4" x1="165.99" y1="584.68" x2="159.99" y2="584.68"/><text class="cls-9" transform="translate(143.09 587.88)">50</text><line class="cls-4" x1="165.99" y1="514.68" x2="159.99" y2="514.68"/><text class="cls-9" transform="translate(137.53 517.88)">100</text><line class="cls-4" x1="165.99" y1="444.68" x2="159.99" y2="444.68"/><text class="cls-9" transform="translate(137.53 447.88)">150</text><line class="cls-4" x1="165.99" y1="374.68" x2="159.99" y2="374.68"/><text class="cls-9" transform="translate(137.53 377.88)">200</text><line class="cls-4" x1="165.99" y1="304.68" x2="159.99" y2="304.68"/><text class="cls-9" transform="translate(137.53 307.88)">250</text><line class="cls-4" x1="165.99" y1="234.68" x2="159.99" y2="234.68"/><text class="cls-9" transform="translate(137.53 237.88)">300</text><line class="cls-4" x1="165.99" y1="164.68" x2="159.99" y2="164.68"/><text class="cls-9" transform="translate(137.53 167.88)">350</text><line class="cls-4" x1="165.99" y1="94.68" x2="159.99" y2="94.68"/><text class="cls-9" transform="translate(120.85 97.88)">$400bn</text><text class="cls-10" transform="translate(117.53 50.4)"><tspan class="cls-11">T</tspan><tspan class="cls-12" x="10.9" y="0">r</tspan><tspan x="18.69" y="0">opical cyclones: </tspan><tspan class="cls-13" x="185.85" y="0">Eight out of the top 10 states with most financial losses f</tspan><tspan class="cls-14" x="716.38" y="0">r</tspan><tspan class="cls-15" x="723" y="0">om weather </tspan><tspan class="cls-15"><tspan x="0" y="25.2">and climate disasters have one thing in common</tspan></tspan></text><path d="M813.25,243.76h-3.11v-1.23h7.67v1.23H814.7v8.5h-1.45Z"/><path d="M817.91,247.07c0-.94,0-1.52,0-1.94h1.35c0,.19,0,.78,0,1.42a2.48,2.48,0,0,1,2.38-1.59v1.36c-1.45,0-2.38.72-2.38,2.55v3.39h-1.37Z"/><path d="M829.06,248.68c0,2.08-1.2,3.75-3.39,3.75s-3.32-1.58-3.32-3.72,1.23-3.75,3.4-3.75C827.75,245,829.06,246.44,829.06,248.68Zm-5.3,0c0,1.52.74,2.6,2,2.6s1.93-1,1.93-2.6-.69-2.61-2-2.61S823.76,247.09,823.76,248.7Z"/><path d="M832,251.43v3.62h-1.36v-8.18c0-.58,0-1.18,0-1.74h1.34c0,.23,0,.66,0,1.08a2.43,2.43,0,0,1,2.28-1.25c1.64,0,2.85,1.38,2.85,3.55,0,2.54-1.38,3.92-3.1,3.92A2.14,2.14,0,0,1,832,251.43Zm3.72-2.86c0-1.47-.66-2.45-1.82-2.45-1.41,0-2,.89-2,2.57s.46,2.6,1.87,2.6C835,251.29,835.69,250.27,835.69,248.57Z"/><path d="M838.68,242h1.38v1.58h-1.38Zm0,3.14h1.38v7.13h-1.38Z"/><path d="M847.83,250.06a2.85,2.85,0,0,1-3,2.37c-2,0-3.22-1.44-3.22-3.69,0-2,1.17-3.78,3.31-3.78a2.69,2.69,0,0,1,2.9,2.42h-1.35a1.51,1.51,0,0,0-1.58-1.29c-1.19,0-1.87,1-1.87,2.6s.67,2.62,1.83,2.62a1.6,1.6,0,0,0,1.61-1.25Z"/><path d="M854.72,250.65a12.12,12.12,0,0,0,.1,1.61h-1.31a3.62,3.62,0,0,1-.12-.89,2.2,2.2,0,0,1-2.16,1.06,2.17,2.17,0,0,1-2.41-2.19c0-1.6,1.26-2.33,3.37-2.33h1.18v-.58c0-.6-.19-1.32-1.45-1.32s-1.32.55-1.44,1.1h-1.32c.09-1,.74-2.15,2.81-2.15,1.77,0,2.75.73,2.75,2.36Zm-1.34-1.82h-1.09c-1.37,0-2.07.39-2.07,1.33a1.19,1.19,0,0,0,1.32,1.22c1.62,0,1.84-1.1,1.84-2.33Z"/><path d="M856.77,252.26V242h1.38v10.27Z"/><path d="M869.44,250.06a2.87,2.87,0,0,1-3,2.37c-2,0-3.22-1.44-3.22-3.69,0-2,1.17-3.78,3.31-3.78a2.71,2.71,0,0,1,2.91,2.42h-1.36a1.51,1.51,0,0,0-1.58-1.29c-1.19,0-1.87,1-1.87,2.6s.67,2.62,1.83,2.62a1.6,1.6,0,0,0,1.61-1.25Z"/><path d="M871.72,245.13c1.07,3.23,1.7,5.18,1.88,5.89h0c.22-.79.71-2.41,1.81-5.89h1.39l-2.54,7.44c-.71,2.08-1.26,2.62-2.76,2.62a6,6,0,0,1-.8-.05V254a5.1,5.1,0,0,0,.57,0c.87,0,1.22-.37,1.61-1.48l-2.66-7.4Z"/><path d="M883.69,250.06a2.86,2.86,0,0,1-3,2.37c-2,0-3.21-1.44-3.21-3.69,0-2,1.16-3.78,3.3-3.78a2.7,2.7,0,0,1,2.91,2.42h-1.36a1.51,1.51,0,0,0-1.58-1.29c-1.19,0-1.86,1-1.86,2.6s.66,2.62,1.82,2.62a1.6,1.6,0,0,0,1.61-1.25Z"/><path d="M885.11,252.26V242h1.37v10.27Z"/><path d="M894.75,248.68c0,2.08-1.2,3.75-3.4,3.75s-3.32-1.58-3.32-3.72,1.24-3.75,3.41-3.75C893.44,245,894.75,246.44,894.75,248.68Zm-5.31,0c0,1.52.75,2.6,2,2.6s1.94-1,1.94-2.6-.7-2.61-2-2.61S889.44,247.09,889.44,248.7Z"/><path d="M896.3,246.93c0-.62,0-1.25,0-1.8h1.34c0,.21,0,.91,0,1.12a2.23,2.23,0,0,1,2.21-1.29c1.36,0,2.38.85,2.38,2.73v4.57h-1.37v-4.41c0-1-.39-1.72-1.44-1.72-1.25,0-1.78.92-1.78,2.32v3.81H896.3Z"/><path d="M905.18,249c0,1.34.69,2.34,1.85,2.34a1.54,1.54,0,0,0,1.63-1h1.39a3,3,0,0,1-3.06,2.17c-2.26,0-3.19-1.81-3.19-3.65,0-2.15,1.08-3.82,3.27-3.82s3.1,1.83,3.1,3.41a5.62,5.62,0,0,1,0,.59Zm3.6-.94c0-1.1-.56-2-1.72-2s-1.72.83-1.83,2Z"/><path d="M912.55,250.2a1.55,1.55,0,0,0,1.67,1.17c1,0,1.37-.41,1.37-1s-.32-.91-1.62-1.22c-2.09-.52-2.51-1.16-2.51-2.13s.75-2,2.64-2,2.65,1.09,2.74,2.08h-1.33a1.32,1.32,0,0,0-1.47-1c-.93,0-1.21.44-1.21.88s.28.75,1.56,1.05c2.2.52,2.61,1.26,2.61,2.32,0,1.24-1,2.18-2.82,2.18s-2.81-1-3-2.23Z"/><path d="M812.91,269.06l-2.58-9.73h1.53c.78,3.43,1.71,7.07,1.88,8.17h0c.28-1.35,1.54-5.71,2.16-8.17h1.38c.57,2.12,1.83,6.84,2.07,8.12h0c.32-1.77,1.6-6.21,2.1-8.12h1.42l-2.8,9.73h-1.54c-.57-2.22-1.75-6.58-2-7.84h0c-.3,1.51-1.49,5.66-2.09,7.84Z"/><path d="M824,258.79h1.37v1.58H824Zm0,3.14h1.37v7.13H824Z"/><path d="M827.46,269.06V258.79h1.37v10.27Z"/><path d="M836.92,258.79v8.27c0,.66,0,1.32,0,2h-1.33a9,9,0,0,1-.06-1,2.22,2.22,0,0,1-2.2,1.13c-1.83,0-3-1.48-3-3.66s1.21-3.81,3.2-3.81c1.21,0,1.77.48,2,.87v-3.84Zm-5.11,6.74c0,1.65.77,2.55,1.86,2.55,1.6,0,1.93-1.21,1.93-2.67s-.3-2.5-1.85-2.5C832.54,262.91,831.81,263.87,831.81,265.53Z"/><path d="M839.32,269.06v-6h-1.13v-1.1h1.13v-.81c0-1.34.54-2.47,2.11-2.47a3.12,3.12,0,0,1,.81.09v1.14a3.39,3.39,0,0,0-.58-.05c-.71,0-1,.39-1,1.38v.72h1.39V263h-1.39v6Z"/><path d="M843.23,258.79h1.38v1.58h-1.38Zm0,3.14h1.38v7.13h-1.38Z"/><path d="M846.65,263.87c0-.94,0-1.52,0-1.94H848c0,.19,0,.78,0,1.42a2.49,2.49,0,0,1,2.38-1.59v1.36c-1.45,0-2.38.72-2.38,2.55v3.39h-1.37Z"/><path d="M852.48,265.76c0,1.34.68,2.34,1.84,2.34a1.54,1.54,0,0,0,1.63-1h1.39a3,3,0,0,1-3.06,2.17c-2.26,0-3.19-1.81-3.19-3.65,0-2.15,1.08-3.82,3.27-3.82s3.1,1.83,3.1,3.41a5.62,5.62,0,0,1,0,.59Zm3.59-.94c0-1.1-.55-2-1.72-2s-1.72.83-1.83,2Z"/><path d="M811.28,276.13h6.36v1.23H812.7v3h4.63v1.22H812.7v4.27h-1.42Z"/><path d="M818.94,285.86V275.59h1.38v10.27Z"/><path d="M828.59,282.28c0,2.08-1.2,3.75-3.4,3.75s-3.32-1.58-3.32-3.72,1.23-3.75,3.4-3.75C827.28,278.56,828.59,280,828.59,282.28Zm-5.31,0c0,1.52.74,2.6,2,2.6s1.93-1,1.93-2.6-.69-2.61-2-2.61S823.28,280.69,823.28,282.3Z"/><path d="M836.44,282.28c0,2.08-1.2,3.75-3.39,3.75s-3.33-1.58-3.33-3.72,1.24-3.75,3.41-3.75C835.13,278.56,836.44,280,836.44,282.28Zm-5.31,0c0,1.52.75,2.6,2,2.6s1.93-1,1.93-2.6-.69-2.61-2-2.61S831.13,280.69,831.13,282.3Z"/><path d="M844.12,275.59v8.27c0,.66,0,1.32,0,2h-1.32a8.8,8.8,0,0,1-.07-1,2.21,2.21,0,0,1-2.2,1.13c-1.83,0-3-1.48-3-3.66s1.22-3.81,3.2-3.81c1.22,0,1.78.48,2,.87v-3.84ZM839,282.33c0,1.65.76,2.55,1.85,2.55,1.61,0,1.93-1.21,1.93-2.67s-.3-2.5-1.84-2.5C839.73,279.71,839,280.67,839,282.33Z"/><path d="M846.84,283.8a1.54,1.54,0,0,0,1.67,1.17c1,0,1.37-.41,1.37-1s-.32-.91-1.62-1.22c-2.09-.52-2.51-1.16-2.51-2.13s.74-2,2.64-2,2.65,1.09,2.73,2.08H849.8a1.33,1.33,0,0,0-1.47-1c-.94,0-1.22.44-1.22.88s.28.75,1.56,1c2.21.52,2.62,1.26,2.62,2.32,0,1.24-1,2.18-2.83,2.18s-2.81-1-3-2.23Z"/><rect class="cls-1" x="789.46" y="242.63" width="12.1" height="9.63"/><rect class="cls-2" x="789.26" y="259.43" width="12.1" height="9.63"/><rect class="cls-3" x="789.26" y="276.23" width="12.1" height="9.63"/><path d="M167.73,691.55a1.82,1.82,0,0,0,2,1.48c1.24,0,1.73-.57,1.73-1.32s-.41-1.24-2-1.63c-2-.49-2.68-1.19-2.68-2.35s1-2.29,2.83-2.29,2.85,1.16,3,2.28h-1.26a1.54,1.54,0,0,0-1.75-1.3c-1,0-1.51.43-1.51,1.18s.45,1,1.89,1.39c2.38.57,2.82,1.49,2.82,2.58,0,1.38-1,2.43-3.09,2.43s-3-1.12-3.22-2.45Z"/><path d="M179.59,690.83a2.9,2.9,0,0,1-2.9,3.21c-1.78,0-2.85-1.35-2.85-3.19a2.89,2.89,0,0,1,2.92-3.2C178.47,687.65,179.59,688.91,179.59,690.83Zm-4.54,0c0,1.31.64,2.23,1.68,2.23s1.65-.88,1.65-2.22-.59-2.24-1.68-2.24S175.05,689.47,175.05,690.84Z"/><path d="M185.91,692.12c0,.59,0,1.38,0,1.78h-1.14a8.39,8.39,0,0,1-.05-.88,1.8,1.8,0,0,1-1.81,1c-1.07,0-2-.56-2-2.24v-4h1.17v3.76c0,.78.24,1.48,1.2,1.48s1.46-.58,1.46-2v-3.2h1.18Z"/><path d="M187.66,689.45c0-.81,0-1.3,0-1.66h1.16c0,.16,0,.67,0,1.21a2.11,2.11,0,0,1,2-1.35v1.16c-1.25,0-2,.61-2,2.18v2.91h-1.18Z"/><path d="M196.8,692a2.45,2.45,0,0,1-2.57,2c-1.72,0-2.75-1.23-2.75-3.16,0-1.74,1-3.23,2.83-3.23a2.3,2.3,0,0,1,2.49,2.06h-1.16a1.29,1.29,0,0,0-1.35-1.1c-1,0-1.6.88-1.6,2.23s.56,2.24,1.56,2.24a1.37,1.37,0,0,0,1.38-1.07Z"/><path d="M198.86,691.07c0,1.15.59,2,1.58,2a1.32,1.32,0,0,0,1.4-.89H203a2.51,2.51,0,0,1-2.61,1.86c-1.94,0-2.74-1.55-2.74-3.13,0-1.83.93-3.26,2.81-3.26a2.61,2.61,0,0,1,2.65,2.91,4.18,4.18,0,0,1,0,.51Zm3.08-.8c0-.95-.48-1.72-1.48-1.72s-1.46.71-1.56,1.72Z"/><path d="M204.77,689.6v-1.78H206v1.78Zm0,4.3v-1.79H206v1.79Z"/><path d="M211,693.9v-8.34h1.61c1.17,1.94,3.64,5.94,4.09,6.84h0c-.09-1-.08-2.37-.08-3.73v-3.11h1.16v8.34h-1.52c-1.06-1.78-3.66-6.13-4.16-7.07h0c.06.91.07,2.38.07,3.88v3.19Z"/><path d="M224.23,692.52a11.6,11.6,0,0,0,.08,1.38h-1.12a3,3,0,0,1-.1-.76,1.89,1.89,0,0,1-1.85.9,1.85,1.85,0,0,1-2.06-1.88c0-1.36,1.08-2,2.89-2h1v-.49c0-.52-.17-1.13-1.25-1.13s-1.13.46-1.23.93h-1.13c.08-.89.63-1.84,2.4-1.83,1.52,0,2.36.62,2.36,2ZM223.08,691h-.93c-1.18,0-1.78.33-1.78,1.14a1,1,0,0,0,1.13,1c1.4,0,1.58-.95,1.58-2Z"/><path d="M225.15,687.79h1V686h1.18v1.77h1.32v.94h-1.32v3.47c0,.56.14.84.69.84a2.24,2.24,0,0,0,.5,0v.87a3.08,3.08,0,0,1-1,.11c-1,0-1.41-.52-1.41-1.55v-3.7h-1Z"/><path d="M229.76,685.1h1.18v1.35h-1.18Zm0,2.69h1.18v6.11h-1.18Z"/><path d="M238,690.83a2.9,2.9,0,0,1-2.91,3.21c-1.78,0-2.84-1.35-2.84-3.19a2.89,2.89,0,0,1,2.91-3.2C236.9,687.65,238,688.91,238,690.83Zm-4.54,0c0,1.31.63,2.23,1.67,2.23s1.66-.88,1.66-2.22-.59-2.24-1.68-2.24S233.48,689.47,233.48,690.84Z"/><path d="M239.35,689.33c0-.53,0-1.07,0-1.54h1.14c0,.18.05.77.05,1a1.9,1.9,0,0,1,1.89-1.1c1.16,0,2,.72,2,2.33v3.92h-1.18v-3.78c0-.88-.33-1.47-1.23-1.47-1.07,0-1.52.78-1.52,2v3.27h-1.18Z"/><path d="M250.77,692.52a9.35,9.35,0,0,0,.09,1.38h-1.13a3.06,3.06,0,0,1-.09-.76,1.91,1.91,0,0,1-1.86.9,1.86,1.86,0,0,1-2.06-1.88c0-1.36,1.08-2,2.89-2h1v-.49c0-.52-.17-1.13-1.24-1.13s-1.13.46-1.24.93H246c.08-.89.63-1.84,2.41-1.83,1.52,0,2.35.62,2.35,2ZM249.63,691h-.93c-1.18,0-1.78.33-1.78,1.14a1,1,0,0,0,1.13,1c1.39,0,1.58-.95,1.58-2Z"/><path d="M252.54,693.9v-8.8h1.17v8.8Z"/><path d="M265.36,691.49A3.19,3.19,0,0,1,262,694c-2.52,0-3.78-1.88-3.78-4.24s1.27-4.32,3.83-4.32a3.07,3.07,0,0,1,3.32,2.55h-1.24a2,2,0,0,0-2.13-1.53c-1.77,0-2.49,1.61-2.49,3.26s.68,3.27,2.54,3.27a2,2,0,0,0,2.07-1.5Z"/><path d="M267.55,691.07c0,1.15.58,2,1.58,2a1.32,1.32,0,0,0,1.4-.89h1.18A2.52,2.52,0,0,1,269.1,694c-1.94,0-2.74-1.55-2.74-3.13,0-1.83.93-3.26,2.8-3.26a2.61,2.61,0,0,1,2.66,2.91,4.18,4.18,0,0,1,0,.51Zm3.08-.8c0-.95-.48-1.72-1.48-1.72s-1.47.71-1.57,1.72Z"/><path d="M273.14,689.33c0-.53,0-1.07,0-1.54h1.15c0,.18,0,.77,0,1a1.9,1.9,0,0,1,1.89-1.1c1.16,0,2,.72,2,2.33v3.92h-1.18v-3.78c0-.88-.33-1.47-1.23-1.47-1.07,0-1.52.78-1.52,2v3.27h-1.18Z"/><path d="M279.16,687.79h1V686h1.18v1.77h1.32v.94h-1.32v3.47c0,.56.14.84.69.84a2.24,2.24,0,0,0,.5,0v.87a3,3,0,0,1-.95.11c-1,0-1.42-.52-1.42-1.55v-3.7h-1Z"/><path d="M284.5,691.07c0,1.15.59,2,1.59,2a1.31,1.31,0,0,0,1.39-.89h1.19a2.53,2.53,0,0,1-2.62,1.86c-1.94,0-2.74-1.55-2.74-3.13,0-1.83.93-3.26,2.81-3.26a2.61,2.61,0,0,1,2.65,2.91,4.18,4.18,0,0,1,0,.51Zm3.08-.8c0-.95-.47-1.72-1.47-1.72s-1.47.71-1.57,1.72Z"/><path d="M290.09,689.45c0-.81,0-1.3,0-1.66h1.16c0,.16,0,.67,0,1.21a2.11,2.11,0,0,1,2-1.35v1.16c-1.25,0-2,.61-2,2.18v2.91h-1.18Z"/><path d="M295.09,692.13a1.32,1.32,0,0,0,1.43,1c.85,0,1.17-.35,1.17-.87s-.27-.78-1.38-1c-1.79-.44-2.15-1-2.15-1.82s.63-1.74,2.26-1.74,2.27.93,2.34,1.77h-1.13a1.13,1.13,0,0,0-1.26-.89c-.8,0-1,.38-1,.76s.24.64,1.33.9c1.89.44,2.24,1.08,2.24,2,0,1.06-.83,1.87-2.42,1.87s-2.4-.82-2.56-1.91Z"/><path d="M303.42,693.9v-5.17h-1v-.94h1v-.69c0-1.15.46-2.12,1.81-2.12a2.73,2.73,0,0,1,.69.08v1a2.57,2.57,0,0,0-.5,0c-.6,0-.83.34-.83,1.18v.62h1.2v.94h-1.2v5.17Z"/><path d="M312,690.83a2.9,2.9,0,0,1-2.91,3.21c-1.78,0-2.85-1.35-2.85-3.19a2.89,2.89,0,0,1,2.92-3.2C310.86,687.65,312,688.91,312,690.83Zm-4.55,0c0,1.31.64,2.23,1.68,2.23s1.66-.88,1.66-2.22-.6-2.24-1.68-2.24S307.44,689.47,307.44,690.84Z"/><path d="M313.31,689.45c0-.81,0-1.3,0-1.66h1.16c0,.16,0,.67,0,1.21a2.11,2.11,0,0,1,2-1.35v1.16c-1.25,0-2,.61-2,2.18v2.91h-1.18Z"/><path d="M326.17,690.06h-4.11v2.79h4.52l-.16,1h-5.57v-8.34h5.51v1.05h-4.3V689h4.11Z"/><path d="M327.79,689.33c0-.53,0-1.07,0-1.54h1.14c0,.18.05.77.05,1a1.9,1.9,0,0,1,1.89-1.1c1.16,0,2,.72,2,2.33v3.92h-1.18v-3.78c0-.88-.33-1.47-1.23-1.47-1.07,0-1.52.78-1.52,2v3.27h-1.18Z"/><path d="M335.05,687.79c.77,2.41,1.35,4.27,1.53,5h0c.15-.74.79-2.57,1.63-5h1.2l-2.23,6.11h-1.28l-2.12-6.11Z"/><path d="M340.45,685.1h1.17v1.35h-1.17Zm0,2.69h1.17v6.11h-1.17Z"/><path d="M343.37,689.45c0-.81,0-1.3,0-1.66h1.16c0,.16,0,.67,0,1.21a2.11,2.11,0,0,1,2-1.35v1.16c-1.25,0-2,.61-2,2.18v2.91h-1.18Z"/><path d="M352.93,690.83A2.9,2.9,0,0,1,350,694c-1.78,0-2.84-1.35-2.84-3.19a2.89,2.89,0,0,1,2.91-3.2C351.81,687.65,352.93,688.91,352.93,690.83Zm-4.54,0c0,1.31.63,2.23,1.67,2.23s1.66-.88,1.66-2.22-.59-2.24-1.68-2.24S348.39,689.47,348.39,690.84Z"/><path d="M354.26,689.33c0-.53,0-1.07,0-1.54h1.14c0,.18.05.77.05,1a1.9,1.9,0,0,1,1.89-1.1c1.16,0,2,.72,2,2.33v3.92h-1.18v-3.78c0-.88-.33-1.47-1.23-1.47-1.07,0-1.52.78-1.52,2v3.27h-1.18Z"/><path d="M361.11,689.36c0-.52,0-1.07,0-1.57h1.13c0,.18,0,.6,0,.9a1.87,1.87,0,0,1,1.76-1,1.67,1.67,0,0,1,1.67,1.06,2.06,2.06,0,0,1,1.93-1.06c1,0,1.92.59,1.92,2.23v4h-1.15V690c0-.68-.25-1.39-1.15-1.39s-1.34.7-1.34,1.75v3.51h-1.15v-3.83c0-.76-.21-1.42-1.13-1.42s-1.36.72-1.36,1.86v3.39h-1.17Z"/><path d="M372.09,691.07c0,1.15.59,2,1.58,2a1.32,1.32,0,0,0,1.4-.89h1.18a2.51,2.51,0,0,1-2.61,1.86c-1.94,0-2.74-1.55-2.74-3.13,0-1.83.93-3.26,2.81-3.26a2.61,2.61,0,0,1,2.65,2.91,4.18,4.18,0,0,1,0,.51Zm3.08-.8c0-.95-.48-1.72-1.48-1.72s-1.46.71-1.56,1.72Z"/><path d="M377.69,689.33c0-.53,0-1.07,0-1.54h1.15a7.63,7.63,0,0,1,0,1,1.91,1.91,0,0,1,1.9-1.1c1.16,0,2,.72,2,2.33v3.92h-1.17v-3.78c0-.88-.34-1.47-1.23-1.47-1.07,0-1.53.78-1.53,2v3.27h-1.17Z"/><path d="M383.7,687.79h1V686h1.17v1.77h1.32v.94h-1.32v3.47c0,.56.15.84.69.84a2.2,2.2,0,0,0,.5,0v.87a3,3,0,0,1-1,.11c-1,0-1.41-.52-1.41-1.55v-3.7h-1Z"/><path d="M393,692.52a9.35,9.35,0,0,0,.09,1.38h-1.13a3.06,3.06,0,0,1-.09-.76,1.91,1.91,0,0,1-1.86.9,1.86,1.86,0,0,1-2.06-1.88c0-1.36,1.08-2,2.89-2h1v-.49c0-.52-.17-1.13-1.24-1.13s-1.13.46-1.24.93h-1.13c.08-.89.63-1.84,2.41-1.83,1.52,0,2.35.62,2.35,2ZM391.84,691h-.93c-1.18,0-1.78.33-1.78,1.14a1,1,0,0,0,1.13,1c1.39,0,1.58-.95,1.58-2Z"/><path d="M394.75,693.9v-8.8h1.17v8.8Z"/><path d="M402.12,685.56v8.34h-1.23v-8.34Z"/><path d="M403.94,689.33c0-.53,0-1.07,0-1.54h1.14c0,.18.05.77.05,1a1.9,1.9,0,0,1,1.89-1.1c1.16,0,2,.72,2,2.33v3.92h-1.18v-3.78c0-.88-.33-1.47-1.23-1.47-1.07,0-1.52.78-1.52,2v3.27h-1.18Z"/><path d="M411,693.9v-5.17h-1v-.94h1v-.69c0-1.15.47-2.12,1.81-2.12a2.75,2.75,0,0,1,.7.08v1a2.65,2.65,0,0,0-.5,0c-.6,0-.83.34-.83,1.18v.62h1.19v.94h-1.19v5.17Z"/><path d="M419.55,690.83a2.9,2.9,0,0,1-2.9,3.21c-1.78,0-2.85-1.35-2.85-3.19a2.89,2.89,0,0,1,2.92-3.2C418.43,687.65,419.55,688.91,419.55,690.83Zm-4.54,0c0,1.31.64,2.23,1.68,2.23s1.65-.88,1.65-2.22-.59-2.24-1.68-2.24S415,689.47,415,690.84Z"/><path d="M420.88,689.45c0-.81,0-1.3,0-1.66H422c0,.16,0,.67,0,1.21a2.11,2.11,0,0,1,2-1.35v1.16c-1.25,0-2,.61-2,2.18v2.91h-1.18Z"/><path d="M425.08,689.36c0-.52,0-1.07,0-1.57h1.13c0,.18.05.6.05.9a1.88,1.88,0,0,1,1.76-1,1.67,1.67,0,0,1,1.67,1.06,2.07,2.07,0,0,1,1.93-1.06c1,0,1.93.59,1.93,2.23v4h-1.16V690c0-.68-.24-1.39-1.15-1.39s-1.34.7-1.34,1.75v3.51h-1.15v-3.83c0-.76-.21-1.42-1.13-1.42s-1.36.72-1.36,1.86v3.39h-1.17Z"/><path d="M439.87,692.52a11.6,11.6,0,0,0,.08,1.38h-1.12a3,3,0,0,1-.1-.76,1.9,1.9,0,0,1-1.85.9,1.86,1.86,0,0,1-2.07-1.88c0-1.36,1.08-2,2.89-2h1v-.49c0-.52-.17-1.13-1.24-1.13s-1.13.46-1.23.93H435.1c.09-.89.64-1.84,2.41-1.83,1.52,0,2.36.62,2.36,2ZM438.72,691h-.93c-1.18,0-1.78.33-1.78,1.14a1,1,0,0,0,1.13,1c1.39,0,1.58-.95,1.58-2Z"/><path d="M440.79,687.79h1V686H443v1.77h1.31v.94H443v3.47c0,.56.14.84.68.84a2.28,2.28,0,0,0,.51,0v.87a3.08,3.08,0,0,1-1,.11c-1,0-1.41-.52-1.41-1.55v-3.7h-1Z"/><path d="M445.4,685.1h1.17v1.35H445.4Zm0,2.69h1.17v6.11H445.4Z"/><path d="M453.66,690.83a2.9,2.9,0,0,1-2.91,3.21c-1.78,0-2.85-1.35-2.85-3.19a2.89,2.89,0,0,1,2.92-3.2C452.54,687.65,453.66,688.91,453.66,690.83Zm-4.55,0c0,1.31.64,2.23,1.68,2.23s1.66-.88,1.66-2.22-.6-2.24-1.68-2.24S449.11,689.47,449.11,690.84Z"/><path d="M455,689.33c0-.53,0-1.07,0-1.54h1.14c0,.18.05.77.05,1a1.89,1.89,0,0,1,1.89-1.1c1.16,0,2,.72,2,2.33v3.92h-1.18v-3.78c0-.88-.34-1.47-1.23-1.47-1.07,0-1.52.78-1.52,2v3.27H455Z"/></svg>