<svg id="Layer_1" data-name="Layer 1" xmlns="http://www.w3.org/2000/svg" viewBox="0 0 879.66 663.49"><defs><style>.cls-1{fill:#2e294e;}.cls-2{fill:#19647e;}.cls-3{fill:#9a348e;}.cls-4{fill:none;stroke:#000;}.cls-5{isolation:isolate;font-size:12px;font-family:Helvetica;}.cls-6{letter-spacing:-0.11em;}.cls-7{letter-spacing:-0.02em;}.cls-8{letter-spacing:-0.09em;}.cls-9{font-size:22px;font-family:HelveticaNeue-Bold, Helvetica Neue;font-weight:700;}.cls-10{letter-spacing:-0.09em;}.cls-11{letter-spacing:-0.02em;}.cls-12,.cls-13{font-family:HelveticaNeue, Helvetica Neue;font-weight:400;}.cls-13{letter-spacing:-0.02em;}</style></defs><rect id="undefined_-_Texas" data-name="undefined - Texas" class="cls-1" x="73.38" y="118.63" width="65.79" height="505.51"/><rect id="undefined_-_Louisiana" data-name="undefined - Louisiana" class="cls-1" x="147.09" y="221.72" width="65.79" height="402.42"/><rect id="undefined_-_Florida" data-name="undefined - Florida" class="cls-1" x="220.8" y="264.04" width="65.79" height="360.09"/><rect id="undefined_-_California" data-name="undefined - California" class="cls-2" x="294.5" y="435.09" width="65.79" height="189.05"/><rect id="undefined_-_Puerto_Rico" data-name="undefined - Puerto Rico" class="cls-1" x="368.21" y="463.24" width="65.79" height="160.9"/><rect id="undefined_-_North_Carolina" data-name="undefined - North Carolina" class="cls-1" x="441.92" y="509.96" width="65.79" height="114.17"/><rect id="undefined_-_Mississippi" data-name="undefined - Mississippi" class="cls-1" x="515.63" y="514.29" width="65.79" height="109.84"/><rect id="undefined_-_New_York" data-name="undefined - New York" class="cls-1" x="589.34" y="518.52" width="65.79" height="105.61"/><rect id="undefined_-_New_Jersey" data-name="undefined - New Jersey" class="cls-1" x="663.05" y="541.44" width="65.79" height="82.69"/><rect id="undefined_-_Iowa" data-name="undefined - Iowa" class="cls-3" x="736.76" y="547.04" width="65.79" height="77.09"/><path class="cls-4" d="M166,654.68H911" transform="translate(-100.53 -30.54)"/><line class="cls-4" x1="106.28" y1="624.13" x2="106.28" y2="630.13"/><text class="cls-5" transform="translate(93.21 640.23)"><tspan class="cls-6">T</tspan><tspan x="6" y="0">exas</tspan></text><line class="cls-4" x1="179.98" y1="624.13" x2="179.98" y2="630.13"/><text class="cls-5" transform="translate(158.58 640.23)">Louisiana</text><line class="cls-4" x1="253.69" y1="624.13" x2="253.69" y2="630.13"/><text class="cls-5" transform="translate(238.41 640.23)">Florida</text><line class="cls-4" x1="327.4" y1="624.13" x2="327.4" y2="630.13"/><text class="cls-5" transform="translate(306.28 640.23)">California</text><line class="cls-4" x1="401.11" y1="624.13" x2="401.11" y2="630.13"/><text class="cls-5" transform="translate(369.99 640.23)">Puerto Rico</text><line class="cls-4" x1="474.82" y1="624.13" x2="474.82" y2="630.13"/><text class="cls-5" transform="translate(442.58 640.23)">N. Carolina</text><line class="cls-4" x1="548.53" y1="624.13" x2="548.53" y2="630.13"/><text class="cls-5" transform="translate(524.36 640.23)">Mississippi</text><line class="cls-4" x1="622.24" y1="624.13" x2="622.24" y2="630.13"/><text class="cls-5" transform="translate(601.11 640.23)">New<tspan class="cls-7" x="24.01" y="0"> </tspan><tspan class="cls-8" x="27.13" y="0">Y</tspan><tspan x="34.03" y="0">ork</tspan></text><line class="cls-4" x1="695.94" y1="624.13" x2="695.94" y2="630.13"/><text class="cls-5" transform="translate(669.83 640.23)">New Jersey</text><line class="cls-4" x1="769.65" y1="624.13" x2="769.65" y2="630.13"/><text class="cls-5" transform="translate(759.09 640.23)">Iowa</text><path class="cls-4" d="M160,654.68h6v-560h-6" transform="translate(-100.53 -30.54)"/><line class="cls-4" x1="65.46" y1="624.13" x2="59.46" y2="624.13"/><text class="cls-5" transform="translate(47.9 627.33)">0</text><line class="cls-4" x1="65.46" y1="554.13" x2="59.46" y2="554.13"/><text class="cls-5" transform="translate(39.56 557.33)">50</text><line class="cls-4" x1="65.46" y1="484.13" x2="59.46" y2="484.13"/><text class="cls-5" transform="translate(34 487.33)">100</text><line class="cls-4" x1="65.46" y1="414.13" x2="59.46" y2="414.13"/><text class="cls-5" transform="translate(34 417.33)">150</text><line class="cls-4" x1="65.46" y1="344.13" x2="59.46" y2="344.13"/><text class="cls-5" transform="translate(34 347.33)">200</text><line class="cls-4" x1="65.46" y1="274.13" x2="59.46" y2="274.13"/><text class="cls-5" transform="translate(34 277.33)">250</text><line class="cls-4" x1="65.46" y1="204.13" x2="59.46" y2="204.13"/><text class="cls-5" transform="translate(34 207.33)">300</text><line class="cls-4" x1="65.46" y1="134.13" x2="59.46" y2="134.13"/><text class="cls-5" transform="translate(34 137.33)">350</text><line class="cls-4" x1="65.46" y1="64.13" x2="59.46" y2="64.13"/><text class="cls-5" transform="translate(17.32 67.33)">$400bn</text><text class="cls-9" transform="translate(0 18.85)"><tspan class="cls-10">T</tspan><tspan class="cls-11" x="11.42" y="0">r</tspan><tspan x="19.58" y="0">opical cyclones: </tspan><tspan class="cls-12" x="194.7" y="0">Eight out of the top 10 states with most financial losses f</tspan><tspan class="cls-13" x="750.5" y="0">r</tspan><tspan class="cls-12" x="757.43" y="0">om weather </tspan><tspan class="cls-12"><tspan x="0" y="26.4">and climate disasters have one thing in common</tspan></tspan></text><path d="M813.48,243.15h-3.33v-1.31h8.21v1.31H815v9.11h-1.55Z" transform="translate(-100.53 -30.54)"/><path d="M818.47,246.7c0-1,0-1.62,0-2.07h1.45c0,.2,0,.83,0,1.51a2.65,2.65,0,0,1,2.55-1.69v1.45c-1.56,0-2.55.77-2.55,2.73v3.63h-1.47Z" transform="translate(-100.53 -30.54)"/><path d="M830.42,248.43c0,2.22-1.29,4-3.64,4s-3.56-1.69-3.56-4,1.33-4,3.65-4C829,244.45,830.42,246,830.42,248.43Zm-5.69,0c0,1.64.8,2.79,2.11,2.79s2.07-1.1,2.07-2.78-.75-2.79-2.1-2.79S824.73,246.73,824.73,248.44Z" transform="translate(-100.53 -30.54)"/><path d="M833.54,251.37v3.88h-1.47v-8.77c0-.62,0-1.26,0-1.85h1.43a11.1,11.1,0,0,1,0,1.15,2.59,2.59,0,0,1,2.44-1.33c1.76,0,3,1.47,3,3.8,0,2.72-1.47,4.19-3.32,4.19A2.27,2.27,0,0,1,833.54,251.37Zm4-3.06c0-1.58-.7-2.63-1.95-2.63-1.51,0-2.09,1-2.09,2.75s.48,2.79,2,2.79C836.81,251.22,837.52,250.12,837.52,248.31Z" transform="translate(-100.53 -30.54)"/><path d="M840.73,241.26h1.47V243h-1.47Zm0,3.37h1.47v7.63h-1.47Z" transform="translate(-100.53 -30.54)"/><path d="M850.53,249.9a3.05,3.05,0,0,1-3.21,2.54c-2.16,0-3.44-1.54-3.44-3.95,0-2.18,1.25-4,3.54-4a2.88,2.88,0,0,1,3.11,2.58h-1.45a1.6,1.6,0,0,0-1.69-1.37c-1.28,0-2,1.09-2,2.78s.71,2.8,2,2.8a1.7,1.7,0,0,0,1.72-1.34Z" transform="translate(-100.53 -30.54)"/><path d="M857.91,250.54a11.67,11.67,0,0,0,.11,1.72h-1.41a3.66,3.66,0,0,1-.12-.95,2.37,2.37,0,0,1-2.32,1.13,2.32,2.32,0,0,1-2.58-2.34c0-1.71,1.35-2.5,3.62-2.5h1.26V247c0-.65-.21-1.42-1.56-1.42-1.2,0-1.41.59-1.54,1.17H852c.11-1.11.79-2.3,3-2.29,1.9,0,2.95.77,2.95,2.52Zm-1.43-1.95h-1.17c-1.47,0-2.22.41-2.22,1.42a1.27,1.27,0,0,0,1.41,1.31c1.74,0,2-1.18,2-2.5Z" transform="translate(-100.53 -30.54)"/><path d="M860.11,252.26v-11h1.47v11Z" transform="translate(-100.53 -30.54)"/><path d="M873.67,249.9a3.05,3.05,0,0,1-3.21,2.54c-2.15,0-3.44-1.54-3.44-3.95,0-2.18,1.25-4,3.54-4a2.87,2.87,0,0,1,3.11,2.58h-1.45a1.6,1.6,0,0,0-1.69-1.37c-1.27,0-2,1.09-2,2.78s.71,2.8,2,2.8a1.7,1.7,0,0,0,1.72-1.34Z" transform="translate(-100.53 -30.54)"/><path d="M876.12,244.63c1.15,3.45,1.83,5.54,2,6.31h0c.23-.85.76-2.59,1.94-6.31h1.48l-2.71,8c-.77,2.22-1.35,2.81-3,2.81-.23,0-.55,0-.86-.05v-1.26a6.06,6.06,0,0,0,.62,0c.93,0,1.3-.4,1.72-1.59l-2.85-7.91Z" transform="translate(-100.53 -30.54)"/><path d="M888.94,249.9a3.05,3.05,0,0,1-3.21,2.54c-2.15,0-3.44-1.54-3.44-3.95,0-2.18,1.25-4,3.54-4a2.87,2.87,0,0,1,3.11,2.58h-1.45a1.6,1.6,0,0,0-1.69-1.37c-1.28,0-2,1.09-2,2.78s.71,2.8,2,2.8a1.7,1.7,0,0,0,1.72-1.34Z" transform="translate(-100.53 -30.54)"/><path d="M890.47,252.26v-11h1.47v11Z" transform="translate(-100.53 -30.54)"/><path d="M900.8,248.43c0,2.22-1.29,4-3.64,4s-3.56-1.69-3.56-4,1.32-4,3.65-4C899.39,244.45,900.8,246,900.8,248.43Zm-5.69,0c0,1.64.8,2.79,2.1,2.79s2.08-1.1,2.08-2.78-.75-2.79-2.11-2.79S895.11,246.73,895.11,248.44Z" transform="translate(-100.53 -30.54)"/><path d="M902.46,246.55c0-.66,0-1.34,0-1.92h1.43a11.9,11.9,0,0,1,.06,1.2,2.38,2.38,0,0,1,2.37-1.38c1.45,0,2.55.9,2.55,2.91v4.9h-1.48v-4.72c0-1.09-.42-1.84-1.54-1.84-1.33,0-1.9,1-1.9,2.48v4.08h-1.47Z" transform="translate(-100.53 -30.54)"/><path d="M912,248.72c0,1.44.73,2.51,2,2.51a1.64,1.64,0,0,0,1.74-1.11h1.49a3.16,3.16,0,0,1-3.27,2.32c-2.43,0-3.43-1.94-3.43-3.91,0-2.29,1.16-4.08,3.51-4.08s3.32,2,3.32,3.64a6.22,6.22,0,0,1,0,.63Zm3.85-1c0-1.18-.59-2.14-1.85-2.14s-1.83.89-2,2.14Z" transform="translate(-100.53 -30.54)"/><path d="M919.88,250.06a1.65,1.65,0,0,0,1.79,1.25c1.05,0,1.46-.45,1.46-1.1s-.35-1-1.73-1.31c-2.24-.54-2.69-1.23-2.69-2.28s.79-2.17,2.82-2.17,2.84,1.16,2.93,2.22h-1.41a1.42,1.42,0,0,0-1.58-1.11c-1,0-1.3.47-1.3.94s.3.8,1.67,1.13c2.36.55,2.8,1.35,2.8,2.48,0,1.32-1,2.33-3,2.33s-3-1-3.2-2.38Z" transform="translate(-100.53 -30.54)"/><path d="M813.11,270.26l-2.76-10.42H812c.85,3.68,1.84,7.57,2,8.75h0c.29-1.45,1.64-6.11,2.31-8.75h1.47c.61,2.27,2,7.32,2.22,8.69h0c.34-1.89,1.71-6.64,2.25-8.69h1.52l-3,10.42h-1.65c-.61-2.38-1.87-7-2.15-8.39h0c-.32,1.61-1.59,6.05-2.24,8.39Z" transform="translate(-100.53 -30.54)"/><path d="M825,259.26h1.47V261H825Zm0,3.37h1.47v7.63H825Z" transform="translate(-100.53 -30.54)"/><path d="M828.7,270.26v-11h1.47v11Z" transform="translate(-100.53 -30.54)"/><path d="M838.84,259.26v8.86c0,.71,0,1.41,0,2.14h-1.41a8,8,0,0,1-.07-1,2.38,2.38,0,0,1-2.36,1.21c-2,0-3.17-1.58-3.17-3.92s1.3-4.07,3.43-4.07c1.3,0,1.9.51,2.1.92v-4.11Zm-5.47,7.22c0,1.77.82,2.73,2,2.73,1.72,0,2.07-1.29,2.07-2.86s-.32-2.67-2-2.67C834.15,263.68,833.37,264.7,833.37,266.48Z" transform="translate(-100.53 -30.54)"/><path d="M841.41,270.26V263.8H840.2v-1.17h1.21v-.87c0-1.44.58-2.65,2.26-2.65a3.47,3.47,0,0,1,.87.1v1.22a3.11,3.11,0,0,0-.62-.06c-.76,0-1,.43-1,1.49v.77h1.49v1.17h-1.49v6.46Z" transform="translate(-100.53 -30.54)"/><path d="M845.6,259.26h1.48V261H845.6Zm0,3.37h1.48v7.63H845.6Z" transform="translate(-100.53 -30.54)"/><path d="M849.26,264.7c0-1,0-1.62,0-2.07h1.44c0,.2,0,.83,0,1.51a2.63,2.63,0,0,1,2.54-1.69v1.45c-1.55,0-2.54.77-2.54,2.73v3.63h-1.48Z" transform="translate(-100.53 -30.54)"/><path d="M855.51,266.72c0,1.44.73,2.51,2,2.51a1.65,1.65,0,0,0,1.74-1.11h1.48a3.15,3.15,0,0,1-3.27,2.32c-2.42,0-3.42-1.94-3.42-3.91,0-2.29,1.16-4.08,3.51-4.08s3.31,2,3.31,3.64a6.22,6.22,0,0,1,0,.63Zm3.84-1c0-1.18-.59-2.14-1.84-2.14s-1.83.89-2,2.14Z" transform="translate(-100.53 -30.54)"/><path d="M811.37,277.84h6.81v1.31h-5.29v3.23h5v1.31h-5v4.57h-1.52Z" transform="translate(-100.53 -30.54)"/><path d="M819.58,288.26v-11h1.47v11Z" transform="translate(-100.53 -30.54)"/><path d="M829.91,284.43c0,2.22-1.29,4-3.64,4s-3.56-1.69-3.56-4,1.33-4,3.65-4C828.51,280.45,829.91,282,829.91,284.43Zm-5.68,0c0,1.64.79,2.79,2.1,2.79s2.07-1.1,2.07-2.78-.75-2.79-2.1-2.79S824.23,282.73,824.23,284.44Z" transform="translate(-100.53 -30.54)"/><path d="M838.32,284.43c0,2.22-1.28,4-3.63,4s-3.56-1.69-3.56-4,1.32-4,3.64-4C836.92,280.45,838.32,282,838.32,284.43Zm-5.68,0c0,1.64.8,2.79,2.1,2.79s2.07-1.1,2.07-2.78-.74-2.79-2.1-2.79S832.64,282.73,832.64,284.44Z" transform="translate(-100.53 -30.54)"/><path d="M846.55,277.26v8.86c0,.71,0,1.41,0,2.14h-1.41a10.05,10.05,0,0,1-.08-1,2.35,2.35,0,0,1-2.35,1.21c-2,0-3.17-1.58-3.17-3.92s1.3-4.07,3.42-4.07c1.31,0,1.91.51,2.1.92v-4.11Zm-5.48,7.22c0,1.77.82,2.73,2,2.73,1.72,0,2.07-1.29,2.07-2.86s-.32-2.67-2-2.67C841.86,281.68,841.07,282.7,841.07,284.48Z" transform="translate(-100.53 -30.54)"/><path d="M849.47,286.06a1.65,1.65,0,0,0,1.79,1.25c1,0,1.46-.45,1.46-1.1s-.34-1-1.73-1.31c-2.24-.54-2.69-1.23-2.69-2.28s.79-2.17,2.82-2.17,2.84,1.16,2.94,2.22h-1.42a1.42,1.42,0,0,0-1.58-1.11c-1,0-1.3.47-1.3.94s.3.8,1.67,1.13c2.36.55,2.8,1.35,2.8,2.48,0,1.32-1,2.33-3,2.33s-3-1-3.2-2.38Z" transform="translate(-100.53 -30.54)"/><rect class="cls-1" x="688.93" y="212.09" width="12.1" height="9.63"/><rect class="cls-2" x="688.73" y="228.89" width="12.1" height="9.63"/><rect class="cls-3" x="688.73" y="245.69" width="12.1" height="9.63"/><path d="M167.73,691.55a1.82,1.82,0,0,0,2,1.48c1.24,0,1.73-.57,1.73-1.32s-.41-1.24-2-1.63c-2-.49-2.68-1.19-2.68-2.35s1-2.29,2.83-2.29,2.85,1.16,3,2.28h-1.26a1.54,1.54,0,0,0-1.75-1.3c-1,0-1.51.43-1.51,1.18s.45,1,1.89,1.39c2.38.57,2.82,1.49,2.82,2.58,0,1.38-1,2.43-3.09,2.43s-3-1.12-3.22-2.45Z" transform="translate(-100.53 -30.54)"/><path d="M179.59,690.83a2.9,2.9,0,0,1-2.9,3.21c-1.78,0-2.85-1.35-2.85-3.19a2.89,2.89,0,0,1,2.92-3.2C178.47,687.65,179.59,688.91,179.59,690.83Zm-4.54,0c0,1.31.64,2.23,1.68,2.23s1.65-.88,1.65-2.22-.59-2.24-1.68-2.24S175.05,689.47,175.05,690.84Z" transform="translate(-100.53 -30.54)"/><path d="M185.91,692.12c0,.59,0,1.38,0,1.78h-1.14a8.39,8.39,0,0,1-.05-.88,1.8,1.8,0,0,1-1.81,1c-1.07,0-2-.56-2-2.24v-4h1.17v3.76c0,.78.24,1.48,1.2,1.48s1.46-.58,1.46-2v-3.2h1.18Z" transform="translate(-100.53 -30.54)"/><path d="M187.66,689.45c0-.81,0-1.3,0-1.66h1.16c0,.16,0,.67,0,1.21a2.11,2.11,0,0,1,2-1.35v1.16c-1.25,0-2,.61-2,2.18v2.91h-1.18Z" transform="translate(-100.53 -30.54)"/><path d="M196.8,692a2.45,2.45,0,0,1-2.57,2c-1.72,0-2.75-1.23-2.75-3.16,0-1.74,1-3.23,2.83-3.23a2.3,2.3,0,0,1,2.49,2.06h-1.16a1.29,1.29,0,0,0-1.35-1.1c-1,0-1.6.88-1.6,2.23s.56,2.24,1.56,2.24a1.37,1.37,0,0,0,1.38-1.07Z" transform="translate(-100.53 -30.54)"/><path d="M198.86,691.07c0,1.15.59,2,1.58,2a1.32,1.32,0,0,0,1.4-.89H203a2.51,2.51,0,0,1-2.61,1.86c-1.94,0-2.74-1.55-2.74-3.13,0-1.83.93-3.26,2.81-3.26a2.61,2.61,0,0,1,2.65,2.91,4.18,4.18,0,0,1,0,.51Zm3.08-.8c0-.95-.48-1.72-1.48-1.72s-1.46.71-1.56,1.72Z" transform="translate(-100.53 -30.54)"/><path d="M204.77,689.6v-1.78H206v1.78Zm0,4.3v-1.79H206v1.79Z" transform="translate(-100.53 -30.54)"/><path d="M211,693.9v-8.34h1.61c1.17,1.94,3.64,5.94,4.09,6.84h0c-.09-1-.08-2.37-.08-3.73v-3.11h1.16v8.34h-1.52c-1.06-1.78-3.66-6.13-4.16-7.07h0c.06.91.07,2.38.07,3.88v3.19Z" transform="translate(-100.53 -30.54)"/><path d="M224.23,692.52a11.6,11.6,0,0,0,.08,1.38h-1.12a3,3,0,0,1-.1-.76,1.89,1.89,0,0,1-1.85.9,1.85,1.85,0,0,1-2.06-1.88c0-1.36,1.08-2,2.89-2h1v-.49c0-.52-.17-1.13-1.25-1.13s-1.13.46-1.23.93h-1.13c.08-.89.63-1.84,2.4-1.83,1.52,0,2.36.62,2.36,2ZM223.08,691h-.93c-1.18,0-1.78.33-1.78,1.14a1,1,0,0,0,1.13,1c1.4,0,1.58-.95,1.58-2Z" transform="translate(-100.53 -30.54)"/><path d="M225.15,687.79h1V686h1.18v1.77h1.32v.94h-1.32v3.47c0,.56.14.84.69.84a2.24,2.24,0,0,0,.5,0v.87a3.08,3.08,0,0,1-1,.11c-1,0-1.41-.52-1.41-1.55v-3.7h-1Z" transform="translate(-100.53 -30.54)"/><path d="M229.76,685.1h1.18v1.35h-1.18Zm0,2.69h1.18v6.11h-1.18Z" transform="translate(-100.53 -30.54)"/><path d="M238,690.83a2.9,2.9,0,0,1-2.91,3.21c-1.78,0-2.84-1.35-2.84-3.19a2.89,2.89,0,0,1,2.91-3.2C236.9,687.65,238,688.91,238,690.83Zm-4.54,0c0,1.31.63,2.23,1.67,2.23s1.66-.88,1.66-2.22-.59-2.24-1.68-2.24S233.48,689.47,233.48,690.84Z" transform="translate(-100.53 -30.54)"/><path d="M239.35,689.33c0-.53,0-1.07,0-1.54h1.14c0,.18.05.77.05,1a1.9,1.9,0,0,1,1.89-1.1c1.16,0,2,.72,2,2.33v3.92h-1.18v-3.78c0-.88-.33-1.47-1.23-1.47-1.07,0-1.52.78-1.52,2v3.27h-1.18Z" transform="translate(-100.53 -30.54)"/><path d="M250.77,692.52a9.35,9.35,0,0,0,.09,1.38h-1.13a3.06,3.06,0,0,1-.09-.76,1.91,1.91,0,0,1-1.86.9,1.86,1.86,0,0,1-2.06-1.88c0-1.36,1.08-2,2.89-2h1v-.49c0-.52-.17-1.13-1.24-1.13s-1.13.46-1.24.93H246c.08-.89.63-1.84,2.41-1.83,1.52,0,2.35.62,2.35,2ZM249.63,691h-.93c-1.18,0-1.78.33-1.78,1.14a1,1,0,0,0,1.13,1c1.39,0,1.58-.95,1.58-2Z" transform="translate(-100.53 -30.54)"/><path d="M252.54,693.9v-8.8h1.17v8.8Z" transform="translate(-100.53 -30.54)"/><path d="M265.36,691.49A3.19,3.19,0,0,1,262,694c-2.52,0-3.78-1.88-3.78-4.24s1.27-4.32,3.83-4.32a3.07,3.07,0,0,1,3.32,2.55h-1.24a2,2,0,0,0-2.13-1.53c-1.77,0-2.49,1.61-2.49,3.26s.68,3.27,2.54,3.27a2,2,0,0,0,2.07-1.5Z" transform="translate(-100.53 -30.54)"/><path d="M267.55,691.07c0,1.15.58,2,1.58,2a1.32,1.32,0,0,0,1.4-.89h1.18A2.52,2.52,0,0,1,269.1,694c-1.94,0-2.74-1.55-2.74-3.13,0-1.83.93-3.26,2.8-3.26a2.61,2.61,0,0,1,2.66,2.91,4.18,4.18,0,0,1,0,.51Zm3.08-.8c0-.95-.48-1.72-1.48-1.72s-1.47.71-1.57,1.72Z" transform="translate(-100.53 -30.54)"/><path d="M273.14,689.33c0-.53,0-1.07,0-1.54h1.15c0,.18,0,.77,0,1a1.9,1.9,0,0,1,1.89-1.1c1.16,0,2,.72,2,2.33v3.92h-1.18v-3.78c0-.88-.33-1.47-1.23-1.47-1.07,0-1.52.78-1.52,2v3.27h-1.18Z" transform="translate(-100.53 -30.54)"/><path d="M279.16,687.79h1V686h1.18v1.77h1.32v.94h-1.32v3.47c0,.56.14.84.69.84a2.24,2.24,0,0,0,.5,0v.87a3,3,0,0,1-.95.11c-1,0-1.42-.52-1.42-1.55v-3.7h-1Z" transform="translate(-100.53 -30.54)"/><path d="M284.5,691.07c0,1.15.59,2,1.59,2a1.31,1.31,0,0,0,1.39-.89h1.19a2.53,2.53,0,0,1-2.62,1.86c-1.94,0-2.74-1.55-2.74-3.13,0-1.83.93-3.26,2.81-3.26a2.61,2.61,0,0,1,2.65,2.91,4.18,4.18,0,0,1,0,.51Zm3.08-.8c0-.95-.47-1.72-1.47-1.72s-1.47.71-1.57,1.72Z" transform="translate(-100.53 -30.54)"/><path d="M290.09,689.45c0-.81,0-1.3,0-1.66h1.16c0,.16,0,.67,0,1.21a2.11,2.11,0,0,1,2-1.35v1.16c-1.25,0-2,.61-2,2.18v2.91h-1.18Z" transform="translate(-100.53 -30.54)"/><path d="M295.09,692.13a1.32,1.32,0,0,0,1.43,1c.85,0,1.17-.35,1.17-.87s-.27-.78-1.38-1c-1.79-.44-2.15-1-2.15-1.82s.63-1.74,2.26-1.74,2.27.93,2.34,1.77h-1.13a1.13,1.13,0,0,0-1.26-.89c-.8,0-1,.38-1,.76s.24.64,1.33.9c1.89.44,2.24,1.08,2.24,2,0,1.06-.83,1.87-2.42,1.87s-2.4-.82-2.56-1.91Z" transform="translate(-100.53 -30.54)"/><path d="M303.42,693.9v-5.17h-1v-.94h1v-.69c0-1.15.46-2.12,1.81-2.12a2.73,2.73,0,0,1,.69.08v1a2.57,2.57,0,0,0-.5,0c-.6,0-.83.34-.83,1.18v.62h1.2v.94h-1.2v5.17Z" transform="translate(-100.53 -30.54)"/><path d="M312,690.83a2.9,2.9,0,0,1-2.91,3.21c-1.78,0-2.85-1.35-2.85-3.19a2.89,2.89,0,0,1,2.92-3.2C310.86,687.65,312,688.91,312,690.83Zm-4.55,0c0,1.31.64,2.23,1.68,2.23s1.66-.88,1.66-2.22-.6-2.24-1.68-2.24S307.44,689.47,307.44,690.84Z" transform="translate(-100.53 -30.54)"/><path d="M313.31,689.45c0-.81,0-1.3,0-1.66h1.16c0,.16,0,.67,0,1.21a2.11,2.11,0,0,1,2-1.35v1.16c-1.25,0-2,.61-2,2.18v2.91h-1.18Z" transform="translate(-100.53 -30.54)"/><path d="M326.17,690.06h-4.11v2.79h4.52l-.16,1h-5.57v-8.34h5.51v1.05h-4.3V689h4.11Z" transform="translate(-100.53 -30.54)"/><path d="M327.79,689.33c0-.53,0-1.07,0-1.54h1.14c0,.18.05.77.05,1a1.9,1.9,0,0,1,1.89-1.1c1.16,0,2,.72,2,2.33v3.92h-1.18v-3.78c0-.88-.33-1.47-1.23-1.47-1.07,0-1.52.78-1.52,2v3.27h-1.18Z" transform="translate(-100.53 -30.54)"/><path d="M335.05,687.79c.77,2.41,1.35,4.27,1.53,5h0c.15-.74.79-2.57,1.63-5h1.2l-2.23,6.11h-1.28l-2.12-6.11Z" transform="translate(-100.53 -30.54)"/><path d="M340.45,685.1h1.17v1.35h-1.17Zm0,2.69h1.17v6.11h-1.17Z" transform="translate(-100.53 -30.54)"/><path d="M343.37,689.45c0-.81,0-1.3,0-1.66h1.16c0,.16,0,.67,0,1.21a2.11,2.11,0,0,1,2-1.35v1.16c-1.25,0-2,.61-2,2.18v2.91h-1.18Z" transform="translate(-100.53 -30.54)"/><path d="M352.93,690.83A2.9,2.9,0,0,1,350,694c-1.78,0-2.84-1.35-2.84-3.19a2.89,2.89,0,0,1,2.91-3.2C351.81,687.65,352.93,688.91,352.93,690.83Zm-4.54,0c0,1.31.63,2.23,1.67,2.23s1.66-.88,1.66-2.22-.59-2.24-1.68-2.24S348.39,689.47,348.39,690.84Z" transform="translate(-100.53 -30.54)"/><path d="M354.26,689.33c0-.53,0-1.07,0-1.54h1.14c0,.18.05.77.05,1a1.9,1.9,0,0,1,1.89-1.1c1.16,0,2,.72,2,2.33v3.92h-1.18v-3.78c0-.88-.33-1.47-1.23-1.47-1.07,0-1.52.78-1.52,2v3.27h-1.18Z" transform="translate(-100.53 -30.54)"/><path d="M361.11,689.36c0-.52,0-1.07,0-1.57h1.13c0,.18,0,.6,0,.9a1.87,1.87,0,0,1,1.76-1,1.67,1.67,0,0,1,1.67,1.06,2.06,2.06,0,0,1,1.93-1.06c1,0,1.92.59,1.92,2.23v4h-1.15V690c0-.68-.25-1.39-1.15-1.39s-1.34.7-1.34,1.75v3.51h-1.15v-3.83c0-.76-.21-1.42-1.13-1.42s-1.36.72-1.36,1.86v3.39h-1.17Z" transform="translate(-100.53 -30.54)"/><path d="M372.09,691.07c0,1.15.59,2,1.58,2a1.32,1.32,0,0,0,1.4-.89h1.18a2.51,2.51,0,0,1-2.61,1.86c-1.94,0-2.74-1.55-2.74-3.13,0-1.83.93-3.26,2.81-3.26a2.61,2.61,0,0,1,2.65,2.91,4.18,4.18,0,0,1,0,.51Zm3.08-.8c0-.95-.48-1.72-1.48-1.72s-1.46.71-1.56,1.72Z" transform="translate(-100.53 -30.54)"/><path d="M377.69,689.33c0-.53,0-1.07,0-1.54h1.15a7.63,7.63,0,0,1,0,1,1.91,1.91,0,0,1,1.9-1.1c1.16,0,2,.72,2,2.33v3.92h-1.17v-3.78c0-.88-.34-1.47-1.23-1.47-1.07,0-1.53.78-1.53,2v3.27h-1.17Z" transform="translate(-100.53 -30.54)"/><path d="M383.7,687.79h1V686h1.17v1.77h1.32v.94h-1.32v3.47c0,.56.15.84.69.84a2.2,2.2,0,0,0,.5,0v.87a3,3,0,0,1-1,.11c-1,0-1.41-.52-1.41-1.55v-3.7h-1Z" transform="translate(-100.53 -30.54)"/><path d="M393,692.52a9.35,9.35,0,0,0,.09,1.38h-1.13a3.06,3.06,0,0,1-.09-.76,1.91,1.91,0,0,1-1.86.9,1.86,1.86,0,0,1-2.06-1.88c0-1.36,1.08-2,2.89-2h1v-.49c0-.52-.17-1.13-1.24-1.13s-1.13.46-1.24.93h-1.13c.08-.89.63-1.84,2.41-1.83,1.52,0,2.35.62,2.35,2ZM391.84,691h-.93c-1.18,0-1.78.33-1.78,1.14a1,1,0,0,0,1.13,1c1.39,0,1.58-.95,1.58-2Z" transform="translate(-100.53 -30.54)"/><path d="M394.75,693.9v-8.8h1.17v8.8Z" transform="translate(-100.53 -30.54)"/><path d="M402.12,685.56v8.34h-1.23v-8.34Z" transform="translate(-100.53 -30.54)"/><path d="M403.94,689.33c0-.53,0-1.07,0-1.54h1.14c0,.18.05.77.05,1a1.9,1.9,0,0,1,1.89-1.1c1.16,0,2,.72,2,2.33v3.92h-1.18v-3.78c0-.88-.33-1.47-1.23-1.47-1.07,0-1.52.78-1.52,2v3.27h-1.18Z" transform="translate(-100.53 -30.54)"/><path d="M411,693.9v-5.17h-1v-.94h1v-.69c0-1.15.47-2.12,1.81-2.12a2.75,2.75,0,0,1,.7.08v1a2.65,2.65,0,0,0-.5,0c-.6,0-.83.34-.83,1.18v.62h1.19v.94h-1.19v5.17Z" transform="translate(-100.53 -30.54)"/><path d="M419.55,690.83a2.9,2.9,0,0,1-2.9,3.21c-1.78,0-2.85-1.35-2.85-3.19a2.89,2.89,0,0,1,2.92-3.2C418.43,687.65,419.55,688.91,419.55,690.83Zm-4.54,0c0,1.31.64,2.23,1.68,2.23s1.65-.88,1.65-2.22-.59-2.24-1.68-2.24S415,689.47,415,690.84Z" transform="translate(-100.53 -30.54)"/><path d="M420.88,689.45c0-.81,0-1.3,0-1.66H422c0,.16,0,.67,0,1.21a2.11,2.11,0,0,1,2-1.35v1.16c-1.25,0-2,.61-2,2.18v2.91h-1.18Z" transform="translate(-100.53 -30.54)"/><path d="M425.08,689.36c0-.52,0-1.07,0-1.57h1.13c0,.18.05.6.05.9a1.88,1.88,0,0,1,1.76-1,1.67,1.67,0,0,1,1.67,1.06,2.07,2.07,0,0,1,1.93-1.06c1,0,1.93.59,1.93,2.23v4h-1.16V690c0-.68-.24-1.39-1.15-1.39s-1.34.7-1.34,1.75v3.51h-1.15v-3.83c0-.76-.21-1.42-1.13-1.42s-1.36.72-1.36,1.86v3.39h-1.17Z" transform="translate(-100.53 -30.54)"/><path d="M439.87,692.52a11.6,11.6,0,0,0,.08,1.38h-1.12a3,3,0,0,1-.1-.76,1.9,1.9,0,0,1-1.85.9,1.86,1.86,0,0,1-2.07-1.88c0-1.36,1.08-2,2.89-2h1v-.49c0-.52-.17-1.13-1.24-1.13s-1.13.46-1.23.93H435.1c.09-.89.64-1.84,2.41-1.83,1.52,0,2.36.62,2.36,2ZM438.72,691h-.93c-1.18,0-1.78.33-1.78,1.14a1,1,0,0,0,1.13,1c1.39,0,1.58-.95,1.58-2Z" transform="translate(-100.53 -30.54)"/><path d="M440.79,687.79h1V686H443v1.77h1.31v.94H443v3.47c0,.56.14.84.68.84a2.28,2.28,0,0,0,.51,0v.87a3.08,3.08,0,0,1-1,.11c-1,0-1.41-.52-1.41-1.55v-3.7h-1Z" transform="translate(-100.53 -30.54)"/><path d="M445.4,685.1h1.17v1.35H445.4Zm0,2.69h1.17v6.11H445.4Z" transform="translate(-100.53 -30.54)"/><path d="M453.66,690.83a2.9,2.9,0,0,1-2.91,3.21c-1.78,0-2.85-1.35-2.85-3.19a2.89,2.89,0,0,1,2.92-3.2C452.54,687.65,453.66,688.91,453.66,690.83Zm-4.55,0c0,1.31.64,2.23,1.68,2.23s1.66-.88,1.66-2.22-.6-2.24-1.68-2.24S449.11,689.47,449.11,690.84Z" transform="translate(-100.53 -30.54)"/><path d="M455,689.33c0-.53,0-1.07,0-1.54h1.14c0,.18.05.77.05,1a1.89,1.89,0,0,1,1.89-1.1c1.16,0,2,.72,2,2.33v3.92h-1.18v-3.78c0-.88-.34-1.47-1.23-1.47-1.07,0-1.52.78-1.52,2v3.27H455Z" transform="translate(-100.53 -30.54)"/></svg>